<?xml version="1.0" ?><svg id="Layer_1" height="32" width="32" version="1.1" viewBox="0 0 512 512" xml:space="preserve" xmlns="http://www.w3.org/2000/svg" xmlns:xlink="http://www.w3.org/1999/xlink"><style type="text/css">
	.st0{fill:#59B749;}
	.st1{fill:#FFFFFF;}
</style><g><path class="st0" d="M512,397.1c0,63.5-51.5,114.9-114.9,114.9H114.9C51.5,512,0,460.5,0,397.1V114.9C0,51.5,51.5,0,114.9,0h282.2   C460.5,0,512,51.5,512,114.9V397.1z"/><g><path class="st1" d="M421.5,217.8c25.5-6.3,25.5-25.5,25.5-25.5h-63.7c-38.2-38.2-76.4-51-127.4-51c-50.9,0-89.1,12.8-127.3,51H65    c0,0,0,19.1,25.5,25.5c-4.7,6.5-9.8,14.9-14.3,24c-6.3,13-11.2,27.4-11.2,39.7c0,52.5,36.6,89.1,89.2,89.1    c29.8,0,59-16.8,76.4-38.2l25.5,38.2l25.5-38.2c17.5,21.4,46.6,38.2,76.4,38.2c52.5,0,89.1-36.6,89.1-89.1    c0-11.7-4.4-25.4-10.3-37.9C432.1,233.9,426.6,224.7,421.5,217.8z M154.1,345.1c-35.2,0-63.7-28.5-63.7-63.6    c0-18.8,8.2-35.7,21.2-47.4c11.3-10.1,26.1-16.3,42.5-16.3c9.9,0,19.3,2.3,27.7,6.4c21.3,10.3,36,32,36,57.3    C217.8,316.7,189.3,345.1,154.1,345.1z M256,319.7c0-36.7-16.9-73.3-40.9-97.8c-17.7-18.1-39.3-29.6-60.9-29.6    c0,0,38.2-38.2,101.9-38.2c63.7,0,101.9,38.2,101.9,38.2c-21.7,0-43.4,11.6-61.2,29.9C272.8,246.8,256,283.2,256,319.7z     M357.9,345.1c-35.1,0-63.6-28.5-63.6-63.6c0-24.8,14.2-46.3,34.8-56.7c8.7-4.4,18.4-7,28.8-7c17.2,0,32.8,6.9,44.2,17.9    c12,11.6,19.5,27.8,19.5,45.8C421.5,316.7,393,345.1,357.9,345.1z"/><path class="st1" d="M357.9,268.7c-7,0-12.7,5.7-12.7,12.8c0,7,5.7,12.7,12.7,12.7c7,0,12.7-5.7,12.7-12.7    C370.6,274.4,364.9,268.7,357.9,268.7z" id="XMLID_83_"/><path class="st1" d="M357.9,243.3c-21.1,0-38.2,17.1-38.2,38.3c0,21.1,17.1,38.2,38.2,38.2c21.1,0,38.2-17.1,38.2-38.2    C396.1,260.4,379,243.3,357.9,243.3z M357.9,307c-14.1,0-25.5-11.4-25.5-25.4c0-14.1,11.4-25.5,25.5-25.5    c14.1,0,25.5,11.4,25.5,25.5C383.4,295.6,371.9,307,357.9,307z"/><path class="st1" d="M154.1,268.7c-7,0-12.7,5.7-12.7,12.8c0,7,5.7,12.7,12.7,12.7c7,0,12.7-5.7,12.7-12.7    C166.9,274.4,161.2,268.7,154.1,268.7z" id="XMLID_80_"/><path class="st1" d="M154.1,243.3c-21.1,0-38.2,17.1-38.2,38.3c0,21.1,17.1,38.2,38.2,38.2c21.1,0,38.2-17.1,38.2-38.2    C192.4,260.4,175.2,243.3,154.1,243.3z M154.1,307c-14.1,0-25.5-11.4-25.5-25.4c0-14.1,11.4-25.5,25.5-25.5    c14,0,25.5,11.4,25.5,25.5C179.6,295.6,168.2,307,154.1,307z"/></g></g></svg>